HIERARCHY
ROOT reference
{
  OFFSET -65.3212 -1.93545 -120.338
  CHANNELS 6 Xposition Yposition Zposition Zrotation Xrotation Yrotation
  JOINT Hips
  {
    OFFSET 0 78.7191 0
    CHANNELS 6 Xposition Yposition Zposition Zrotation Xrotation Yrotation
    JOINT Chest
    {
      OFFSET 0 8.7983 -4.7612
      CHANNELS 6 Xposition Yposition Zposition Zrotation Xrotation Yrotation
      JOINT Chest2
      {
        OFFSET 0 8.0291 0.4195
        CHANNELS 6 Xposition Yposition Zposition Zrotation Xrotation Yrotation
        JOINT Chest3
        {
          OFFSET 0 9.9351 -2.2114
          CHANNELS 6 Xposition Yposition Zposition Zrotation Xrotation Yrotation
          JOINT Neck
          {
            OFFSET 0 22.3885 -0.4656
            CHANNELS 6 Xposition Yposition Zposition Zrotation Xrotation Yrotation
            JOINT Head
            {
              OFFSET -0.0001 12.643 3.4389
              CHANNELS 6 Xposition Yposition Zposition Zrotation Xrotation Yrotation
              End Site
              {
                OFFSET 0.0001 17.6655 0.5274
              }
            }
          }
          JOINT LeftCollar
          {
            OFFSET 2.2603 21.606 7.4023
            CHANNELS 6 Xposition Yposition Zposition Zrotation Xrotation Yrotation
            JOINT LeftShoulder
            {
              OFFSET 13.5163 -1.1332 -5.0146
              CHANNELS 6 Xposition Yposition Zposition Zrotation Xrotation Yrotation
              JOINT LeftElbow
              {
                OFFSET -0.0995 -28.05 -0.2431
                CHANNELS 6 Xposition Yposition Zposition Zrotation Xrotation Yrotation
                JOINT LeftWrist
                {
                  OFFSET 0.0679 -23.3996 -0.1402
                  CHANNELS 6 Xposition Yposition Zposition Zrotation Xrotation Yrotation
                  JOINT LeftFinger1
                  {
                    OFFSET 0.7932 -9.069 2.5189
                    CHANNELS 6 Xposition Yposition Zposition Zrotation Xrotation Yrotation
                    JOINT LeftFinger11
                    {
                      OFFSET -0.8272 -3.3923 0.5977
                      CHANNELS 6 Xposition Yposition Zposition Zrotation Xrotation Yrotation
                      JOINT LeftFinger12
                      {
                        OFFSET -0.5649 -2.3158 0.4082
                        CHANNELS 6 Xposition Yposition Zposition Zrotation Xrotation Yrotation
                        End Site
                        {
                          OFFSET -0.4919 -1.6479 0.2673
                        }
                      }
                    }
                  }
                  JOINT LeftFinger2
                  {
                    OFFSET 0.9159 -9.2044 0.2193
                    CHANNELS 6 Xposition Yposition Zposition Zrotation Xrotation Yrotation
                    JOINT LeftFinger21
                    {
                      OFFSET 0.0117 -4.1944 -0.0248
                      CHANNELS 6 Xposition Yposition Zposition Zrotation Xrotation Yrotation
                      JOINT LeftFinger22
                      {
                        OFFSET 0.0071 -2.3249 -0.0142
                        CHANNELS 6 Xposition Yposition Zposition Zrotation Xrotation Yrotation
                        End Site
                        {
                          OFFSET -0.1475 -2.0882 0.0028
                        }
                      }
                    }
                  }
                  JOINT LeftFinger3
                  {
                    OFFSET 0.6113 -8.7231 -2.0637
                    CHANNELS 6 Xposition Yposition Zposition Zrotation Xrotation Yrotation
                    JOINT LeftFinger31
                    {
                      OFFSET -0.1927 -3.8059 -0.2383
                      CHANNELS 6 Xposition Yposition Zposition Zrotation Xrotation Yrotation
                      JOINT LeftFinger32
                      {
                        OFFSET -0.1091 -2.1688 -0.1362
                        CHANNELS 6 Xposition Yposition Zposition Zrotation Xrotation Yrotation
                        End Site
                        {
                          OFFSET -0.2358 -1.9176 -0.0906
                        }
                      }
                    }
                  }
                  JOINT LeftFinger4
                  {
                    OFFSET -0.6151 -8.0947 -3.5641
                    CHANNELS 6 Xposition Yposition Zposition Zrotation Xrotation Yrotation
                    JOINT LeftFinger41
                    {
                      OFFSET -0.4882 -2.341 -0.6462
                      CHANNELS 6 Xposition Yposition Zposition Zrotation Xrotation Yrotation
                      JOINT LeftFinger42
                      {
                        OFFSET -0.3575 -1.7167 -0.4742
                        CHANNELS 6 Xposition Yposition Zposition Zrotation Xrotation Yrotation
                        End Site
                        {
                          OFFSET -0.4187 -1.5237 -0.3496
                        }
                      }
                    }
                  }
                  JOINT LeftFinger0
                  {
                    OFFSET -1.42 -1.8761 1.4223
                    CHANNELS 6 Xposition Yposition Zposition Zrotation Xrotation Yrotation
                    JOINT LeftFinger01
                    {
                      OFFSET -1.1471 -3.4929 2.6334
                      CHANNELS 6 Xposition Yposition Zposition Zrotation Xrotation Yrotation
                      JOINT LeftFinger02
                      {
                        OFFSET -0.823 -2.3 1.6571
                        CHANNELS 6 Xposition Yposition Zposition Zrotation Xrotation Yrotation
                        End Site
                        {
                          OFFSET -0.5822 -1.6914 1.1582
                        }
                      }
                    }
                  }
                }
              }
            }
          }
          JOINT RightCollar
          {
            OFFSET -2.2603 21.606 7.4023
            CHANNELS 6 Xposition Yposition Zposition Zrotation Xrotation Yrotation
            JOINT RightShoulder
            {
              OFFSET -13.5187 -1.1334 -5.0155
              CHANNELS 6 Xposition Yposition Zposition Zrotation Xrotation Yrotation
              JOINT RightElbow
              {
                OFFSET 0.0994 -28.0499 -0.2431
                CHANNELS 6 Xposition Yposition Zposition Zrotation Xrotation Yrotation
                JOINT RightWrist
                {
                  OFFSET -0.0679 -23.3996 -0.1402
                  CHANNELS 6 Xposition Yposition Zposition Zrotation Xrotation Yrotation
                  JOINT RightFinger1
                  {
                    OFFSET -0.7932 -9.0691 2.5189
                    CHANNELS 6 Xposition Yposition Zposition Zrotation Xrotation Yrotation
                    JOINT RightFinger11
                    {
                      OFFSET 0.8272 -3.3923 0.5977
                      CHANNELS 6 Xposition Yposition Zposition Zrotation Xrotation Yrotation
                      JOINT RightFinger12
                      {
                        OFFSET 0.565 -2.3158 0.4082
                        CHANNELS 6 Xposition Yposition Zposition Zrotation Xrotation Yrotation
                        End Site
                        {
                          OFFSET 0.4919 -1.6479 0.2673
                        }
                      }
                    }
                  }
                  JOINT RightFinger2
                  {
                    OFFSET -0.916 -9.2044 0.2193
                    CHANNELS 6 Xposition Yposition Zposition Zrotation Xrotation Yrotation
                    JOINT RightFinger21
                    {
                      OFFSET -0.0117 -4.1944 -0.0248
                      CHANNELS 6 Xposition Yposition Zposition Zrotation Xrotation Yrotation
                      JOINT RightFinger22
                      {
                        OFFSET -0.0071 -2.3249 -0.0142
                        CHANNELS 6 Xposition Yposition Zposition Zrotation Xrotation Yrotation
                        End Site
                        {
                          OFFSET 0.1475 -2.0882 0.0028
                        }
                      }
                    }
                  }
                  JOINT RightFinger3
                  {
                    OFFSET -0.6113 -8.7231 -2.0637
                    CHANNELS 6 Xposition Yposition Zposition Zrotation Xrotation Yrotation
                    JOINT RightFinger31
                    {
                      OFFSET 0.1927 -3.8059 -0.2383
                      CHANNELS 6 Xposition Yposition Zposition Zrotation Xrotation Yrotation
                      JOINT RightFinger32
                      {
                        OFFSET 0.1091 -2.1688 -0.1362
                        CHANNELS 6 Xposition Yposition Zposition Zrotation Xrotation Yrotation
                        End Site
                        {
                          OFFSET 0.2358 -1.9176 -0.0906
                        }
                      }
                    }
                  }
                  JOINT RightFinger4
                  {
                    OFFSET 0.6151 -8.0947 -3.564
                    CHANNELS 6 Xposition Yposition Zposition Zrotation Xrotation Yrotation
                    JOINT RightFinger41
                    {
                      OFFSET 0.4882 -2.341 -0.6462
                      CHANNELS 6 Xposition Yposition Zposition Zrotation Xrotation Yrotation
                      JOINT RightFinger42
                      {
                        OFFSET 0.3574 -1.7166 -0.4742
                        CHANNELS 6 Xposition Yposition Zposition Zrotation Xrotation Yrotation
                        End Site
                        {
                          OFFSET 0.4187 -1.5237 -0.3496
                        }
                      }
                    }
                  }
                  JOINT RightFinger0
                  {
                    OFFSET 1.4199 -1.8761 1.4221
                    CHANNELS 6 Xposition Yposition Zposition Zrotation Xrotation Yrotation
                    JOINT RightFinger01
                    {
                      OFFSET 1.1472 -3.4929 2.6336
                      CHANNELS 6 Xposition Yposition Zposition Zrotation Xrotation Yrotation
                      JOINT RightFinger02
                      {
                        OFFSET 0.8229 -2.3 1.6571
                        CHANNELS 6 Xposition Yposition Zposition Zrotation Xrotation Yrotation
                        End Site
                        {
                          OFFSET 0.5822 -1.6914 1.1582
                        }
                      }
                    }
                  }
                }
              }
            }
          }
        }
      }
    }
    JOINT RightHip
    {
      OFFSET -9.412 3.9771 -0.7758
      CHANNELS 6 Xposition Yposition Zposition Zrotation Xrotation Yrotation
      JOINT RightKnee
      {
        OFFSET -0.7531 -40.938 0
        CHANNELS 6 Xposition Yposition Zposition Zrotation Xrotation Yrotation
        JOINT RightAnkle
        {
          OFFSET 0 -40.1986 0
          CHANNELS 6 Xposition Yposition Zposition Zrotation Xrotation Yrotation
          JOINT RightToe
          {
            OFFSET 0 -4.4182 9.239
            CHANNELS 6 Xposition Yposition Zposition Zrotation Xrotation Yrotation
            End Site
            {
              OFFSET 0 0 6.1981
            }
          }
        }
      }
    }
    JOINT LeftHip
    {
      OFFSET 9.4119 3.9773 -0.7758
      CHANNELS 6 Xposition Yposition Zposition Zrotation Xrotation Yrotation
      JOINT LeftKnee
      {
        OFFSET 0.7532 -40.9383 0
        CHANNELS 6 Xposition Yposition Zposition Zrotation Xrotation Yrotation
        JOINT LeftAnkle
        {
          OFFSET 0 -40.1986 0
          CHANNELS 6 Xposition Yposition Zposition Zrotation Xrotation Yrotation
          JOINT LeftToe
          {
            OFFSET 0 -4.4182 9.239
            CHANNELS 6 Xposition Yposition Zposition Zrotation Xrotation Yrotation
            End Site
            {
              OFFSET 0 0 6.1981
            }
          }
        }
      }
    }
  }
}
MOTION
Frames:	4
Frame Time:	0.0333333
-7.30913 -1.43466 -2.24322 0 0 -0 4.44089e-015 78.7191 0 3.79865 -4.6025 -3.55088 2.22045e-016 8.7983 -4.7612 -2.18698 0.540446 -0.542365 0 8.0291 0.4195 -4.36907 1.10118 -1.06377 -1.77636e-015 9.9351 -2.2114 -4.36908 1.10118 -1.06378 -3.55271e-015 22.3885 -0.4656 6.02733 -0.60649 -1.10694 -0.0001 12.643 3.4389 -1.86102 2.81195 -3.18034 2.2603 21.606 7.4023 3.53108 0.526956 -9.09109 13.5163 -1.1332 -5.0146 5.6195 7.41569 31.4755 -0.0995 -28.05 -0.2431 -174.278 -74.4348 -134.386 0.0679 -23.3996 -0.1402 14.7371 -18.4559 46.034 0.7932 -9.069 2.5189 22.5374 -13.1075 3.82301 -0.8272 -3.3923 0.5977 -0.16878 -2.22033 -0.890391 -0.5649 -2.3158 0.4082 4.78063 -2.95262 0.379448 0.9159 -9.2044 0.2193 29.9147 -16.415 7.31446 0.0117 -4.1944 -0.0248 -0.369735 -2.06321 0.400461 0.0071 -2.3249 -0.0142 4.76846 -2.94937 0.590907 0.6113 -8.7231 -2.0637 30.3561 -15.1061 9.51857 -0.1927 -3.8059 -0.2383 -0.370901 -2.27281 0.767682 -0.1091 -2.1688 -0.1362 4.63056 -3.13811 0.737655 -0.6151 -8.0947 -3.5641 33.202 -8.71672 11.8129 -0.4882 -2.341 -0.6462 -0.0709149 -2.03057 1.73333 -0.3575 -1.7167 -0.4742 4.63659 -3.08805 0.910617 -1.42 -1.8761 1.4223 -1.77598 -2.37556 0.455717 -1.1471 -3.4929 2.6334 -1.23472 -0.601614 0.234495 -0.823 -2.3 1.6571 -1.7761 -2.37524 0.455955 -2.2603 21.606 7.4023 1.76456 0.248294 10.363 -13.5187 -1.1334 -5.0155 -0.0159725 9.488 -25.0771 0.0994 -28.0499 -0.2431 4.37908 -29.8825 -10.6248 -0.0679 -23.3996 -0.1402 -4.03661 -6.2959 6.36743 -0.7932 -9.0691 2.5189 5.32543 1.81347 -0.170134 0.8272 -3.3923 0.5977 5.32399 1.81294 -0.170157 0.565 -2.3158 0.4082 5.32282 1.81302 -0.169961 -0.916 -9.2044 0.2193 5.32257 1.81353 0.0423422 -0.0117 -4.1944 -0.0248 5.32327 1.81395 0.0427668 -0.0071 -2.3249 -0.0142 5.32332 1.81418 0.0424582 -0.6113 -8.7231 -2.0637 5.23669 2.02815 0.202892 0.1927 -3.8059 -0.2383 5.23854 2.02954 0.203106 0.1091 -2.1688 -0.1362 5.23893 2.02938 0.203173 0.6151 -8.0947 -3.564 5.24637 1.97521 0.355889 0.4882 -2.341 -0.6462 5.24876 1.97628 0.35587 0.3574 -1.7166 -0.4742 5.24814 1.97607 0.356017 1.4199 -1.8761 1.4221 -1.16955 2.64228 0.857599 1.1472 -3.4929 2.6336 -1.16998 2.64219 0.85788 0.8229 -2.3 1.6571 -1.1697 2.64199 0.857686 -9.412 3.9771 -0.7758 -12.7054 -7.4443 -3.2463 -0.7531 -40.938 -3.55271e-015 0.737503 12.1017 -0.142502 3.55271e-015 -40.1986 0 10.3381 -0.613189 -6.02978 -3.55272e-015 -4.4182 9.239 -0.376262 -2.64394 0.142984 9.4119 3.9773 -0.7758 -9.449 9.66279 -5.48018 0.7532 -40.9383 0 0.113091 1.63944 0.488187 -8.88178e-016 -40.1986 0 5.67316 -6.48953 10.6898 -4.44089e-016 -4.4182 9.239 -0.139369 -0.23845 4.44358e-005 
-7.31032 -1.43839 -2.21382 0 0 -0 4.44089e-015 78.7191 0 3.79132 -4.62518 -3.5501 -2.22045e-016 8.7983 -4.7612 -2.16619 0.492655 -0.561012 -8.88178e-016 8.0291 0.4195 -4.32769 1.00614 -1.10305 1.77636e-015 9.9351 -2.2114 -4.32769 1.00615 -1.10305 -3.55271e-015 22.3885 -0.4656 6.33295 -0.567201 -0.0258278 -0.0001 12.643 3.4389 -1.81037 2.78337 -2.0324 2.2603 21.606 7.4023 3.3587 0.434251 -9.13333 13.5163 -1.1332 -5.0146 5.74111 7.63456 31.5208 -0.0995 -28.05 -0.2431 -172.148 -74.7052 -132.175 0.0679 -23.3996 -0.1402 13.6822 -17.7727 45.8847 0.7932 -9.069 2.5189 22.5374 -13.1075 3.82302 -0.8272 -3.3923 0.5977 -0.168818 -2.22032 -0.890395 -0.5649 -2.3158 0.4082 4.78065 -2.95263 0.379461 0.9159 -9.2044 0.2193 29.9147 -16.415 7.31449 0.0117 -4.1944 -0.0248 -0.369875 -2.06317 0.400499 0.0071 -2.3249 -0.0142 4.7685 -2.94935 0.590954 0.6113 -8.7231 -2.0637 30.3561 -15.1061 9.51859 -0.1927 -3.8059 -0.2383 -0.370761 -2.27282 0.767718 -0.1091 -2.1688 -0.1362 4.63051 -3.13818 0.7376 -0.6151 -8.0947 -3.5641 33.202 -8.71672 11.8129 -0.4882 -2.341 -0.6462 -0.0710867 -2.03059 1.73327 -0.3575 -1.7167 -0.4742 4.63677 -3.08798 0.909947 -1.42 -1.8761 1.4223 -1.77597 -2.37557 0.455723 -1.1471 -3.4929 2.6334 -1.23474 -0.601625 0.234503 -0.823 -2.3 1.6571 -1.77609 -2.37526 0.455994 -2.2603 21.606 7.4023 1.90044 0.223357 10.3603 -13.5187 -1.1334 -5.0155 -0.162571 9.54535 -25.1055 0.0994 -28.0499 -0.2431 4.43672 -29.8983 -10.5324 -0.0679 -23.3996 -0.1402 -4.04514 -6.23172 6.36663 -0.7932 -9.0691 2.5189 5.32543 1.81348 -0.170118 0.8272 -3.3923 0.5977 5.32396 1.81293 -0.170151 0.565 -2.3158 0.4082 5.32282 1.81303 -0.16996 -0.916 -9.2044 0.2193 5.32256 1.81353 0.0423417 -0.0117 -4.1944 -0.0248 5.32328 1.81393 0.0428193 -0.0071 -2.3249 -0.0142 5.32332 1.81418 0.042472 -0.6113 -8.7231 -2.0637 5.23667 2.02813 0.202891 0.1927 -3.8059 -0.2383 5.23856 2.02955 0.203121 0.1091 -2.1688 -0.1362 5.2389 2.02938 0.203165 0.6151 -8.0947 -3.564 5.24636 1.97522 0.355958 0.4882 -2.341 -0.6462 5.24872 1.97628 0.355875 0.3574 -1.7166 -0.4742 5.24813 1.97606 0.356033 1.4199 -1.8761 1.4221 -1.16951 2.64229 0.857561 1.1472 -3.4929 2.6336 -1.16999 2.64217 0.857883 0.8229 -2.3 1.6571 -1.16972 2.64198 0.857678 -9.412 3.9771 -0.7758 -12.7057 -7.43247 -3.23904 -0.7531 -40.938 3.55272e-015 0.746648 12.165 -0.153261 7.10543e-015 -40.1986 0 10.3362 -0.663306 -6.01484 0 -4.4182 9.239 -0.3762 -2.64395 0.142883 9.4119 3.9773 -0.7758 -9.44155 9.69503 -5.40421 0.7532 -40.9383 0 0.112403 1.66066 0.487597 8.88178e-016 -40.1986 -1.77636e-015 5.69343 -6.58073 10.6227 -4.44089e-016 -4.4182 9.239 -0.115466 -0.203946 0.000129968 
-7.31121 -1.44242 -2.1942 0 0 -0 4.44089e-015 78.7191 0 3.78277 -4.64208 -3.53221 0 8.7983 -4.7612 -2.14761 0.448038 -0.583344 0 8.0291 0.4195 -4.29074 0.917591 -1.14954 3.55271e-015 9.9351 -2.2114 -4.29075 0.91759 -1.14954 -3.55271e-015 22.3885 -0.4656 6.59305 -0.648759 1.13612 -0.0001 12.643 3.4389 -1.77676 2.60169 -0.834048 2.2603 21.606 7.4023 3.26196 0.372336 -9.16925 13.5163 -1.1332 -5.0146 5.75333 7.79798 31.5335 -0.0995 -28.05 -0.2431 -170.065 -74.9197 -130.021 0.0679 -23.3996 -0.1402 12.743 -17.1042 45.6869 0.7932 -9.069 2.5189 22.5374 -13.1075 3.82306 -0.8272 -3.3923 0.5977 -0.168708 -2.22033 -0.890368 -0.5649 -2.3158 0.4082 4.78063 -2.95263 0.379455 0.9159 -9.2044 0.2193 29.9147 -16.415 7.31453 0.0117 -4.1944 -0.0248 -0.369814 -2.06314 0.400605 0.0071 -2.3249 -0.0142 4.76843 -2.94943 0.590851 0.6113 -8.7231 -2.0637 30.3561 -15.1061 9.5186 -0.1927 -3.8059 -0.2383 -0.370918 -2.27274 0.767815 -0.1091 -2.1688 -0.1362 4.6305 -3.13819 0.737594 -0.6151 -8.0947 -3.5641 33.202 -8.71671 11.8129 -0.4882 -2.341 -0.6462 -0.0708861 -2.03065 1.73322 -0.3575 -1.7167 -0.4742 4.63699 -3.08788 0.909294 -1.42 -1.8761 1.4223 -1.77594 -2.37558 0.455728 -1.1471 -3.4929 2.6334 -1.23478 -0.601599 0.234537 -0.823 -2.3 1.6571 -1.77611 -2.37524 0.456037 -2.2603 21.606 7.4023 2.04362 0.199428 10.3507 -13.5187 -1.1334 -5.0155 -0.315119 9.59125 -25.1311 0.0994 -28.0499 -0.2431 4.4958 -29.9193 -10.4365 -0.0679 -23.3996 -0.1402 -4.04089 -6.15642 6.33447 -0.7932 -9.0691 2.5189 5.32541 1.81347 -0.170073 0.8272 -3.3923 0.5977 5.324 1.81294 -0.17016 0.565 -2.3158 0.4082 5.3228 1.81304 -0.169948 -0.916 -9.2044 0.2193 5.32258 1.81354 0.0423687 -0.0117 -4.1944 -0.0248 5.32328 1.81391 0.0429194 -0.0071 -2.3249 -0.0142 5.32332 1.81415 0.0425022 -0.6113 -8.7231 -2.0637 5.2367 2.02815 0.202907 0.1927 -3.8059 -0.2383 5.23855 2.02952 0.203117 0.1091 -2.1688 -0.1362 5.2389 2.02939 0.203178 0.6151 -8.0947 -3.564 5.24637 1.97519 0.355797 0.4882 -2.341 -0.6462 5.24871 1.97625 0.355889 0.3574 -1.7166 -0.4742 5.24814 1.97603 0.35606 1.4199 -1.8761 1.4221 -1.16954 2.64227 0.857544 1.1472 -3.4929 2.6336 -1.16997 2.64217 0.857901 0.8229 -2.3 1.6571 -1.16971 2.64198 0.857694 -9.412 3.9771 -0.7758 -12.7037 -7.42787 -3.21877 -0.7531 -40.938 -3.55271e-015 0.756654 12.23 -0.181321 -3.55271e-015 -40.1986 0 10.3367 -0.712812 -6.01401 3.55271e-015 -4.4182 9.239 -0.376213 -2.64393 0.142875 9.4119 3.9773 -0.7758 -9.43432 9.67536 -5.31157 0.7532 -40.9383 0 0.110565 1.76403 0.483839 -8.88178e-016 -40.1986 -1.77636e-015 5.72056 -6.7234 10.5288 0 -4.4182 9.239 -0.0915579 -0.169434 0.00021356 
-7.31167 -1.44756 -2.17244 0 0 -0 4.44089e-015 78.7191 0 3.77423 -4.67264 -3.51474 2.22045e-016 8.7983 -4.7612 -2.13184 0.402281 -0.603438 0 8.0291 0.4195 -4.25948 0.826716 -1.19153 0 9.9351 -2.2114 -4.25949 0.826719 -1.19153 0 22.3885 -0.4656 6.81573 -0.831882 2.35081 -0.0001 12.643 3.4389 -1.75165 2.42405 0.385027 2.2603 21.606 7.4023 3.24486 0.349942 -9.18261 13.5163 -1.1332 -5.0146 5.67368 7.9387 31.5093 -0.0995 -28.05 -0.2431 -168.005 -75.0808 -127.899 0.0679 -23.3996 -0.1402 11.9372 -16.434 45.4697 0.7932 -9.069 2.5189 22.5374 -13.1075 3.82311 -0.8272 -3.3923 0.5977 -0.168873 -2.22031 -0.890401 -0.5649 -2.3158 0.4082 4.78066 -2.95262 0.379473 0.9159 -9.2044 0.2193 29.9147 -16.4149 7.31462 0.0117 -4.1944 -0.0248 -0.36983 -2.06321 0.40041 0.0071 -2.3249 -0.0142 4.76844 -2.9494 0.590853 0.6113 -8.7231 -2.0637 30.3561 -15.1061 9.51863 -0.1927 -3.8059 -0.2383 -0.370921 -2.27283 0.76761 -0.1091 -2.1688 -0.1362 4.63051 -3.13819 0.73759 -0.6151 -8.0947 -3.5641 33.202 -8.71671 11.8129 -0.4882 -2.341 -0.6462 -0.0709377 -2.03063 1.73324 -0.3575 -1.7167 -0.4742 4.63719 -3.08777 0.908626 -1.42 -1.8761 1.4223 -1.77596 -2.37559 0.455748 -1.1471 -3.4929 2.6334 -1.23477 -0.601555 0.234612 -0.823 -2.3 1.6571 -1.77611 -2.37521 0.456123 -2.2603 21.606 7.4023 2.17272 0.175781 10.3514 -13.5187 -1.1334 -5.0155 -0.417531 9.68058 -25.1794 0.0994 -28.0499 -0.2431 4.53092 -29.9081 -10.3531 -0.0679 -23.3996 -0.1402 -4.03471 -6.12935 6.29575 -0.7932 -9.0691 2.5189 5.32542 1.81351 -0.170004 0.8272 -3.3923 0.5977 5.32399 1.81295 -0.170149 0.565 -2.3158 0.4082 5.32285 1.81303 -0.16995 -0.916 -9.2044 0.2193 5.32257 1.81357 0.0424244 -0.0117 -4.1944 -0.0248 5.32326 1.81394 0.0427138 -0.0071 -2.3249 -0.0142 5.32333 1.81413 0.0425691 -0.6113 -8.7231 -2.0637 5.23667 2.02816 0.202964 0.1927 -3.8059 -0.2383 5.23857 2.02953 0.203124 0.1091 -2.1688 -0.1362 5.23892 2.02937 0.203183 0.6151 -8.0947 -3.564 5.24638 1.97519 0.355799 0.4882 -2.341 -0.6462 5.24871 1.97626 0.355908 0.3574 -1.7166 -0.4742 5.24816 1.97599 0.356118 1.4199 -1.8761 1.4221 -1.16952 2.64228 0.857494 1.1472 -3.4929 2.6336 -1.17003 2.64214 0.857959 0.8229 -2.3 1.6571 -1.16971 2.64198 0.857686 -9.412 3.9771 -0.7758 -12.7086 -7.40974 -3.22439 -0.7531 -40.938 -3.55271e-015 0.773395 12.2957 -0.195267 0 -40.1986 8.88179e-016 10.331 -0.760146 -5.9997 -3.55271e-015 -4.4182 9.239 -0.376202 -2.64394 0.142882 9.4119 3.9773 -0.7758 -9.43353 9.67344 -5.31648 0.7532 -40.9383 0 0.115469 1.86098 0.509436 -8.88179e-016 -40.1986 0 5.70914 -6.78703 10.5011 8.88178e-016 -4.4182 9.239 -0.0534851 -0.16614 0.000230517 
